<mxfile host="app.diagrams.net" modified="2024-05-24T14:31:11.316Z" agent="Mozilla/5.0 (Windows NT 10.0; Win64; x64) AppleWebKit/537.36 (KHTML, like Gecko) Chrome/125.0.0.0 Safari/537.36" version="24.4.8" etag="Pr9_KR0vMziRCsnzh4Tt" type="github">
  <diagram name="Page-1" id="efowWxQU5rwg9-G4LPVk">
    <mxGraphModel>
      <root>
        <mxCell id="0" />
        <mxCell id="1" parent="0" />
      </root>
    </mxGraphModel>
  </diagram>
</mxfile>
